<?xml version="1.0" ?><svg id="Layer_1" style="enable-background:new 0 0 85.271 114.521;" version="1.1" viewBox="0 0 85.271 114.521" xml:space="preserve" xmlns="http://www.w3.org/2000/svg" xmlns:xlink="http://www.w3.org/1999/xlink"><g><path d="M11.271,114.521H74c6.225,0,11.271-5.046,11.271-11.271V39.656L45.568,0L11.271,0   C5.046,0,0,5.046,0,11.271l0,91.979C0,109.475,5.046,114.521,11.271,114.521z" style="fill:#FDF2CE;"/><g><path d="M16.684,100.506v-20.8c0-0.341,0.144-0.64,0.432-0.896c0.288-0.256,0.667-0.384,1.136-0.384h6.432    c2.197,0,3.957,0.582,5.28,1.744c1.322,1.163,1.984,2.981,1.984,5.456v0.192c0,2.496-0.688,4.331-2.064,5.504    c-1.376,1.174-3.195,1.76-5.456,1.76h-3.584v7.424c0,0.405-0.208,0.726-0.624,0.96c-0.416,0.235-0.901,0.352-1.456,0.352    c-0.576,0-1.067-0.117-1.472-0.352C16.887,101.232,16.684,100.912,16.684,100.506z M20.844,89.818h3.584    c1.066,0,1.893-0.309,2.48-0.928c0.586-0.618,0.88-1.536,0.88-2.752v-0.384c0-1.216-0.293-2.133-0.88-2.752    c-0.587-0.619-1.414-0.928-2.48-0.928h-3.584V89.818z" style="fill:#FF7351;"/><path d="M36.108,100.506v-20.8c0-0.341,0.144-0.64,0.432-0.896c0.288-0.256,0.667-0.384,1.136-0.384h6.433    c2.197,0,3.957,0.582,5.28,1.744c1.322,1.163,1.983,2.981,1.983,5.456v0.192c0,2.496-0.688,4.331-2.063,5.504    c-1.376,1.174-3.195,1.76-5.456,1.76h-3.584v7.424c0,0.405-0.208,0.726-0.624,0.96c-0.416,0.235-0.901,0.352-1.456,0.352    c-0.576,0-1.067-0.117-1.473-0.352C36.31,101.232,36.108,100.912,36.108,100.506z M40.268,89.818h3.584    c1.066,0,1.893-0.309,2.479-0.928c0.587-0.618,0.88-1.536,0.88-2.752v-0.384c0-1.216-0.293-2.133-0.88-2.752    c-0.587-0.619-1.413-0.928-2.479-0.928h-3.584V89.818z" style="fill:#FF7351;"/><path d="M53.995,80.235c0-0.478,0.112-0.898,0.336-1.263c0.224-0.364,0.549-0.546,0.976-0.546h13.536    c0.427,0,0.752,0.182,0.977,0.546c0.224,0.364,0.336,0.785,0.336,1.263c0,0.499-0.118,0.93-0.353,1.294    c-0.234,0.364-0.555,0.545-0.96,0.545h-4.672V100.5c0,0.407-0.208,0.729-0.624,0.965s-0.901,0.354-1.456,0.354    c-0.576,0-1.066-0.118-1.472-0.354s-0.608-0.558-0.608-0.965V82.074h-4.704c-0.405,0-0.725-0.176-0.96-0.53    C54.113,81.191,53.995,80.755,53.995,80.235z" style="fill:#FF7351;"/></g><path d="M57.048,39.656h28.223L45.568,0l0.033,28.223C45.609,34.539,50.731,39.656,57.048,39.656z" style="fill:#B8B097;"/><path d="M59.321,37.383c6.417,0.333,25.95,2.273,25.95,2.273L45.568,0c0,0,1.767,19.496,2.306,25.95   C48.4,32.245,53.013,37.057,59.321,37.383z" style="fill:#FF7351;"/><line style="fill:#FDFFEE;" x1="85.271" x2="45.568" y1="39.656" y2="0"/></g></svg>